<?xml version="1.0" standalone="no"?>
<!DOCTYPE svg PUBLIC "-//W3C//DTD SVG 20010904//EN"
 "http://www.w3.org/TR/2001/REC-SVG-20010904/DTD/svg10.dtd">
<svg version="1.0" xmlns="http://www.w3.org/2000/svg"
 width="1300.000000pt" height="1300.000000pt" viewBox="0 0 1300.000000 1300.000000"
 preserveAspectRatio="xMidYMid meet">

<g transform="translate(0.000000,1300.000000) scale(0.100000,-0.100000)"
fill="#000000" stroke="none">
<path d="M9379 10680 c-176 -21 -365 -106 -499 -224 -47 -41 -1143 -1134
-2436 -2428 l-2350 -2353 -36 -120 c-29 -97 -285 -926 -444 -1440 -36 -117
-41 -159 -23 -199 12 -26 63 -56 95 -56 16 0 245 68 634 190 325 101 454 141
745 230 165 51 309 97 320 102 39 19 4765 4751 4827 4833 115 151 175 316 185
510 19 374 -187 715 -529 874 -144 68 -336 100 -489 81z m291 -245 c254 -78
432 -268 491 -523 16 -69 13 -227 -5 -304 -17 -75 -62 -180 -92 -216 l-19 -23
-475 476 c-261 261 -475 481 -475 487 0 20 162 95 240 112 87 19 257 15 335
-9z m-545 -465 l200 -200 -2280 -2280 -2280 -2280 -205 205 -205 205 2275
2275 c1251 1251 2280 2275 2285 2275 6 0 100 -90 210 -200z m-1510 -3050
l-2280 -2280 -196 193 c-107 105 -199 199 -203 207 -5 10 635 656 2271 2292
l2278 2278 205 -205 205 -205 -2280 -2280z m-2508 -2391 c-6 -4 -75 -26 -152
-49 -77 -23 -234 -71 -350 -107 -589 -182 -736 -226 -740 -221 -2 2 8 44 24
94 16 49 84 267 151 484 154 502 201 653 207 664 3 4 201 -187 439 -425 274
-274 429 -436 421 -440z"/>
<path d="M2652 10430 c-18 -11 -37 -32 -42 -46 -7 -16 -10 -1307 -10 -3615 0
-3239 2 -3593 16 -3620 32 -64 -273 -59 3832 -59 l3749 0 34 23 c20 13 39 37
46 57 14 43 16 4706 2 4757 -11 36 -62 73 -103 73 -39 0 -83 -26 -101 -60 -13
-26 -15 -292 -15 -2325 l0 -2295 -187 0 c-104 0 -775 0 -1492 0 -1032 0 -1307
-2 -1319 -12 -13 -10 -14 -10 -8 0 11 18 -3694 18 -3713 0 -11 -10 -13 -10 -7
-1 6 10 -47 13 -248 13 l-256 0 0 678 c0 372 0 1906 0 3409 0 1745 -4 2741
-10 2757 -6 18 -6 26 1 26 6 0 9 7 5 15 -5 15 -3 16 32 19 9 1 23 5 30 9 7 5
12 4 12 -2 0 -15 3729 -15 3747 1 8 6 13 7 13 0 0 -13 591 -15 645 -3 84 21
114 118 56 183 l-29 33 -2324 2 c-2308 3 -2323 3 -2356 -17z m7568 -3944 c0
-2 -8 -10 -17 -17 -16 -13 -17 -12 -4 4 13 16 21 21 21 13z m-9 -83 c13 -16
12 -17 -3 -4 -10 7 -18 15 -18 17 0 8 8 3 21 -13z"/>
</g>
</svg>
