<?xml version="1.0" standalone="no"?>
<!DOCTYPE svg PUBLIC "-//W3C//DTD SVG 20010904//EN"
 "http://www.w3.org/TR/2001/REC-SVG-20010904/DTD/svg10.dtd">
<svg version="1.0" xmlns="http://www.w3.org/2000/svg"
 width="256.000000pt" height="256.000000pt" viewBox="0 0 256.000000 256.000000"
 preserveAspectRatio="xMidYMid meet">

<g transform="translate(0.000000,256.000000) scale(0.100000,-0.100000)"
fill="#000000" stroke="none">
<path d="M1075 2119 c-308 -75 -561 -331 -635 -639 -27 -115 -27 -284 0 -398
76 -317 325 -566 642 -642 113 -27 283 -27 396 0 317 76 566 325 642 642 27
114 27 283 0 398 -75 311 -329 565 -640 640 -114 27 -293 27 -405 -1z m381
-119 c43 -11 117 -39 164 -62 69 -34 103 -60 180 -138 78 -77 104 -111 138
-180 111 -222 111 -458 0 -680 -34 -69 -60 -103 -138 -180 -77 -78 -111 -104
-180 -138 -129 -64 -228 -85 -369 -80 -204 9 -344 71 -491 218 -96 96 -148
178 -187 295 -25 72 -27 94 -27 225 0 131 2 153 27 225 65 196 218 367 401
451 142 65 331 82 482 44z"/>
<path d="M962 1614 c-46 -32 -31 -59 105 -196 l127 -128 -127 -128 c-132 -134
-147 -160 -111 -196 36 -37 63 -22 196 111 l128 128 128 -128 c133 -133 160
-148 196 -111 36 36 21 62 -111 196 l-127 128 127 128 c99 100 127 133 127
154 0 29 -32 58 -64 58 -11 0 -72 -52 -148 -127 l-128 -127 -128 127 c-76 75
-137 127 -148 127 -11 0 -30 -7 -42 -16z"/>
</g>
</svg>
