<?xml version="1.0" standalone="no"?>
<!DOCTYPE svg PUBLIC "-//W3C//DTD SVG 20010904//EN"
 "http://www.w3.org/TR/2001/REC-SVG-20010904/DTD/svg10.dtd">
<svg version="1.0" xmlns="http://www.w3.org/2000/svg"
 width="512.000000pt" height="512.000000pt" viewBox="0 0 512.000000 512.000000"
 preserveAspectRatio="xMidYMid meet">

<g transform="translate(0.000000,512.000000) scale(0.100000,-0.100000)"
fill="#000000" stroke="none">
<path d="M2395 3940 c-599 -43 -1209 -299 -1756 -736 -225 -180 -421 -373
-578 -566 l-62 -78 62 -77 c213 -265 511 -535 819 -745 724 -493 1490 -665
2229 -502 560 124 1100 419 1597 872 119 109 255 253 353 375 l62 77 -62 78
c-317 393 -780 762 -1246 996 -454 227 -970 338 -1418 306z m328 -360 c316
-26 604 -109 922 -265 325 -159 675 -414 940 -684 l69 -71 -69 -71 c-265 -270
-615 -525 -940 -684 -737 -362 -1433 -362 -2170 0 -325 159 -675 414 -940 684
l-69 71 69 71 c265 270 615 525 940 684 430 211 839 298 1248 265z"/>
<path d="M2425 3306 c-113 -22 -220 -69 -318 -138 l-28 -20 53 -32 c122 -72
159 -232 80 -349 -76 -114 -233 -145 -347 -68 l-44 30 -8 -47 c-15 -88 -8
-232 16 -316 73 -264 271 -462 537 -538 111 -31 277 -31 388 0 266 76 462 272
538 538 31 111 31 277 0 388 -93 326 -368 545 -702 561 -58 3 -122 -1 -165 -9z"/>
</g>
</svg>
